<svg aria-hidden="true" style="position: absolute; width: 0; height: 0; overflow: hidden;" version="1.1"  xmlns="http://www.w3.org/2000/svg" xmlns:xlink="http://www.w3.org/1999/xlink">
<defs>
<!-- mobile-menu -->
<!-- stroke property-->
<symbol id="icon-menu"   viewBox="0 0 20 14" >
<path d="M1 7H19M1 1H19M1 13H19"  stroke-width="2" stroke-linecap="round" stroke-linejoin="round"/>
</symbol>
<!-- mobile-menu-close -->
<!-- stroke property-->
<symbol id="icon-menu-close"   viewBox="0 0 20 20" >
<path d="M1 1L10 10L19 19M1 19L19 1"  stroke-width="2" stroke-linecap="round" stroke-linejoin="round"/>
</symbol>
<!-- icon-google-play -->
<symbol id="icon-google-play"  viewBox="0 0 35 38" >
  <path d="M0.912417 36.7234L19.1077 18.4259L1.21208 0.429688C0.498142 0.887367 0 1.67754 0 2.63635V34.7394C0 35.5574 0.362584 36.2526 0.912417 36.7234Z" fill="url(#paint0_linear_3147_763)"/>
  <path d="M33.1317 16.3889C34.9557 17.3925 34.9557 19.984 33.1317 20.9877L25.7727 25.0371L19.1074 18.4262L25.4328 12.1523L33.1317 16.3889Z" fill="url(#paint1_linear_3147_763)"/>
  <path d="M25.7728 25.0368L19.1075 18.4258L0.912109 36.7234C1.71225 37.4085 2.90898 37.6182 3.96189 37.0388L25.7728 25.0368Z" fill="url(#paint2_linear_3147_763)"/>
  <path d="M1.21289 0.429309L19.1085 18.4255L25.4339 12.1516L3.9629 0.336591C3.03457 -0.174249 1.99444 -0.0716927 1.21289 0.429309Z" fill="url(#paint3_linear_3147_763)"/>
  <defs>
    <linearGradient id="paint0_linear_3147_763" x1="12.4731" y1="11.319" x2="0.102144" y2="23.7916" gradientUnits="userSpaceOnUse">
      <stop stop-color="#00C3FF"/>
      <stop offset="1" stop-color="#1BE2FA"/>
    </linearGradient>
    <linearGradient id="paint1_linear_3147_763" x1="19.1074" y1="18.4262" x2="35.5613" y2="18.4262" gradientUnits="userSpaceOnUse">
      <stop stop-color="#FFCE00"/>
      <stop offset="1" stop-color="#FFEA00"/>
    </linearGradient>
    <linearGradient id="paint2_linear_3147_763" x1="0.530536" y1="38.9569" x2="22.4175" y2="21.4098" gradientUnits="userSpaceOnUse">
      <stop stop-color="#DE2453"/>
      <stop offset="1" stop-color="#FE3944"/>
    </linearGradient>
    <linearGradient id="paint3_linear_3147_763" x1="1.59307" y1="-1.57928" x2="22.4222" y2="15.4337" gradientUnits="userSpaceOnUse">
      <stop stop-color="#11D574"/>
      <stop offset="1" stop-color="#01F176"/>
    </linearGradient>
  </defs>
</symbol>
<!-- icon-wifi -->
<!-- fill property -->
<symbol id="icon-wifi"  viewBox="0 0 56 56" >
<path d="M28.0004 49C27.3109 49 26.6282 48.8642 25.9913 48.6004C25.3543 48.3365 24.7756 47.9498 24.2881 47.4623C23.8005 46.9748 23.4138 46.3961 23.15 45.7591C22.8862 45.1221 22.7504 44.4394 22.7504 43.75C22.7504 43.0606 22.8862 42.3779 23.15 41.7409C23.4138 41.104 23.8005 40.5252 24.2881 40.0377C24.7756 39.5502 25.3543 39.1635 25.9913 38.8996C26.6282 38.6358 27.3109 38.5 28.0004 38.5C29.3928 38.5 30.7281 39.0531 31.7127 40.0377C32.6972 41.0223 33.2504 42.3576 33.2504 43.75C33.2504 45.1424 32.6972 46.4778 31.7127 47.4623C30.7281 48.4469 29.3928 49 28.0004 49ZM28.0004 45.5C28.4645 45.5 28.9096 45.3156 29.2378 44.9874C29.566 44.6593 29.7504 44.2141 29.7504 43.75C29.7504 43.2859 29.566 42.8408 29.2378 42.5126C28.9096 42.1844 28.4645 42 28.0004 42C27.5362 42 27.0911 42.1844 26.7629 42.5126C26.4347 42.8408 26.2504 43.2859 26.2504 43.75C26.2504 44.2141 26.4347 44.6593 26.7629 44.9874C27.0911 45.3156 27.5362 45.5 28.0004 45.5ZM39.1619 32.76C39.4637 33.0981 39.6227 33.5401 39.6052 33.993C39.5878 34.4459 39.3953 34.8743 39.0683 35.1881C38.7413 35.502 38.3053 35.6767 37.8521 35.6756C37.3989 35.6744 36.9638 35.4975 36.6384 35.182C35.5236 34.0145 34.1829 33.086 32.6979 32.453C31.2129 31.82 29.6146 31.4958 28.0004 31.5C24.7209 31.5 21.6549 32.823 19.4149 35.1295C19.0902 35.4569 18.6494 35.6428 18.1883 35.647C17.7273 35.6512 17.2832 35.4733 16.9526 35.1519C16.622 34.8305 16.4316 34.3917 16.4228 33.9307C16.4139 33.4697 16.5873 33.0238 16.9054 32.69C18.3447 31.2028 20.069 30.0211 21.9753 29.2152C23.8816 28.4094 25.9308 27.9961 28.0004 28C32.2704 28 36.2639 29.7395 39.1619 32.76ZM46.2319 25.27C46.3911 25.4357 46.5162 25.6312 46.5999 25.8452C46.6836 26.0592 46.7244 26.2876 46.7198 26.5174C46.7153 26.7472 46.6655 26.9738 46.5734 27.1844C46.4813 27.3949 46.3486 27.5853 46.1829 27.7445C46.0172 27.9038 45.8217 28.0288 45.6077 28.1126C45.3937 28.1963 45.1652 28.237 44.9355 28.2325C44.7057 28.2279 44.479 28.1782 44.2685 28.0861C44.058 27.9939 43.8676 27.8612 43.7084 27.6955C41.679 25.5752 39.2405 23.8886 36.5406 22.7378C33.8407 21.5869 30.9353 20.9958 28.0004 21C25.0889 20.9963 22.2065 21.5785 19.5247 22.7119C16.8429 23.8454 14.4166 25.5069 12.3904 27.5975C12.0669 27.9308 11.6242 28.1218 11.1599 28.1287C10.6955 28.1356 10.2474 27.9578 9.91412 27.6343C9.58087 27.3108 9.38978 26.8681 9.38289 26.4038C9.376 25.9394 9.55387 25.4913 9.87737 25.158C12.2302 22.7314 15.0472 20.8029 18.1606 19.4873C21.2741 18.1717 24.6204 17.4958 28.0004 17.5C31.4072 17.4953 34.7797 18.1814 37.9139 19.5169C41.0481 20.8524 43.8789 22.8095 46.2354 25.27M53.3054 17.787C53.6072 18.1251 53.7662 18.5671 53.7487 19.02C53.7313 19.4729 53.5388 19.9013 53.2118 20.2151C52.8848 20.529 52.4488 20.7037 51.9956 20.7026C51.5424 20.7014 51.1073 20.5245 50.7819 20.209C47.8375 17.1355 44.3007 14.6906 40.3852 13.0219C36.4697 11.3532 32.2566 10.4953 28.0004 10.5C23.7777 10.496 19.5973 11.341 15.7077 12.9849C11.8181 14.6287 8.29879 17.0379 5.35887 20.069C5.19932 20.2365 5.00817 20.3707 4.79645 20.4638C4.58472 20.5569 4.35664 20.6072 4.12538 20.6116C3.89412 20.6161 3.66428 20.5746 3.44914 20.4897C3.234 20.4047 3.03784 20.278 2.87198 20.1168C2.70613 19.9555 2.57389 19.763 2.4829 19.5504C2.39191 19.3377 2.34397 19.1091 2.34187 18.8779C2.33977 18.6466 2.38353 18.4171 2.47064 18.2029C2.55775 17.9886 2.68647 17.7937 2.84937 17.6295C6.11545 14.2628 10.0249 11.587 14.3456 9.76095C18.6662 7.93494 23.3097 6.99603 28.0004 7.00001C32.7282 6.99571 37.4079 7.94931 41.757 9.80327C46.1062 11.6572 50.0347 14.3731 53.3054 17.787Z" />
</symbol>
<!-- icon-no-wifi -->
<!-- fill property -->
<symbol id="icon-no-wifi"  viewBox="0 0 56 56" >
<path d="M22.8099 42.9488L27.1989 38.5598C27.4602 38.5201 27.7274 38.5003 28.0004 38.5003C29.0729 38.5007 30.1196 38.8296 30.9996 39.4427C31.8796 40.0559 32.5507 40.9239 32.9226 41.9299C33.2945 42.9359 33.3494 44.0317 33.0798 45.0698C32.8102 46.1079 32.2291 47.0386 31.4148 47.7365C30.6004 48.4345 29.5918 48.8663 28.5246 48.9738C27.4575 49.0813 26.383 48.8594 25.4457 48.3379C24.5085 47.8164 23.7534 47.0204 23.2822 46.0569C22.811 45.0934 22.6461 44.0087 22.8099 42.9488ZM33.1174 32.6448L35.7074 30.0548C36.9709 30.7828 38.1364 31.6893 39.1619 32.7568C39.4835 33.0914 39.659 33.5401 39.6498 34.0042C39.6407 34.4682 39.4475 34.9096 39.1129 35.2313C38.7782 35.5529 38.3295 35.7284 37.8655 35.7192C37.4014 35.7101 36.96 35.5169 36.6384 35.1823C35.6302 34.1277 34.4367 33.2676 33.1174 32.6448ZM40.6844 25.0743L43.1904 22.5718C44.2707 23.3861 45.2857 24.2868 46.2354 25.2738C46.3944 25.4397 46.5192 25.6353 46.6026 25.8495C46.686 26.0636 46.7265 26.2921 46.7216 26.5219C46.7167 26.7517 46.6666 26.9782 46.5742 27.1887C46.4818 27.3991 46.3488 27.5892 46.1829 27.7483C46.0169 27.9073 45.8213 28.0321 45.6072 28.1155C45.393 28.1989 45.1645 28.2394 44.9347 28.2345C44.705 28.2296 44.4784 28.1795 44.268 28.0871C44.0575 27.9947 43.8674 27.8617 43.7084 27.6958C42.7819 26.7321 41.7697 25.8546 40.6844 25.0743ZM24.7139 21.2453C20.0219 21.9582 15.693 24.1896 12.3904 27.5978C12.0657 27.9251 11.6249 28.1111 11.1638 28.1153C10.7028 28.1195 10.2587 27.9415 9.92812 27.6202C9.59752 27.2988 9.40711 26.8599 9.39826 26.3989C9.38941 25.9379 9.56284 25.4921 9.88087 25.1583C12.2874 22.676 15.1789 20.7154 18.3756 19.3986C21.5723 18.0817 25.0057 17.4368 28.4624 17.5038L24.7139 21.2453ZM48.0659 17.6963L50.5509 15.2113C51.5099 16.0186 52.4269 16.8773 53.3019 17.7873C53.6037 18.1253 53.7627 18.5673 53.7452 19.0202C53.7278 19.4731 53.5353 19.9016 53.2083 20.2154C52.8813 20.5292 52.4453 20.704 51.9921 20.7028C51.5389 20.7017 51.1038 20.5247 50.7784 20.2093C49.9242 19.3192 49.0185 18.4801 48.0659 17.6963ZM34.7414 11.2213C32.5268 10.7391 30.2668 10.4974 28.0004 10.5003C23.7777 10.4962 19.5973 11.3413 15.7077 12.9851C11.8181 14.629 8.29879 17.0381 5.35887 20.0693C5.19932 20.2367 5.00817 20.3709 4.79645 20.464C4.58472 20.5572 4.35664 20.6074 4.12538 20.6119C3.89412 20.6163 3.66428 20.5749 3.44914 20.4899C3.234 20.405 3.03784 20.2782 2.87198 20.117C2.70613 19.9558 2.57389 19.7633 2.4829 19.5506C2.39191 19.338 2.34397 19.1094 2.34187 18.8781C2.33977 18.6468 2.38353 18.4174 2.47064 18.2031C2.55775 17.9889 2.68647 17.794 2.84937 17.6298C6.11545 14.2631 10.0249 11.5872 14.3456 9.76119C18.6662 7.93518 23.3097 6.99628 28.0004 7.00026C31.3044 7.00026 34.5384 7.45876 37.6254 8.33726L34.7414 11.2213ZM28.0004 45.5003C28.4645 45.5003 28.9096 45.3159 29.2378 44.9877C29.566 44.6595 29.7504 44.2144 29.7504 43.7503C29.7504 43.2861 29.566 42.841 29.2378 42.5128C28.9096 42.1846 28.4645 42.0003 28.0004 42.0003C27.5362 42.0003 27.0911 42.1846 26.7629 42.5128C26.4347 42.841 26.2504 43.2861 26.2504 43.7503C26.2504 44.2144 26.4347 44.6595 26.7629 44.9877C27.0911 45.3159 27.5362 45.5003 28.0004 45.5003ZM9.01637 49.0003C8.68631 49.319 8.24426 49.4954 7.78541 49.4914C7.32657 49.4875 6.88765 49.3034 6.56318 48.9789C6.23872 48.6545 6.05467 48.2156 6.05069 47.7567C6.0467 47.2979 6.22309 46.8558 6.54187 46.5258L49.5114 4.01126C49.84 3.68265 50.2856 3.49805 50.7504 3.49805C51.2151 3.49805 51.6608 3.68265 51.9894 4.01126C52.318 4.33986 52.5026 4.78554 52.5026 5.25026C52.5026 5.71497 52.318 6.16065 51.9894 6.48926L9.01637 49.0003Z" />

</symbol>

<!-- icon-arrow -->
<!-- fill and stroke properties -->
<symbol id="icon-arrow"  viewBox="0 0 48 48" >
<path d="M33.9649 21.5006L24.2308 11.7702L24.2308 11.7701C23.7615 11.3008 23.4978 10.6643 23.4978 10.0006C23.4978 9.33686 23.7615 8.70033 24.2308 8.23102C24.7001 7.7617 25.3366 7.49805 26.0003 7.49805C26.329 7.49805 26.6544 7.56278 26.958 7.68854C27.2616 7.8143 27.5375 7.99864 27.7699 8.23102L27.4163 8.58457L27.7699 8.23102L41.7694 22.2306L33.9649 21.5006ZM33.9649 21.5006H8.00033C7.33729 21.5006 6.7014 21.764 6.23256 22.2328C5.76372 22.7016 5.50033 23.3375 5.50033 24.0006C5.50033 24.6636 5.76372 25.2995 6.23256 25.7683C6.7014 26.2372 7.33729 26.5006 8.00033 26.5006L33.9649 26.5006L24.2308 36.231L24.2308 36.231C23.7615 36.7003 23.4978 37.3369 23.4978 38.0006C23.4978 38.6643 23.7615 39.3008 24.2308 39.7701C24.7001 40.2394 25.3366 40.5031 26.0003 40.5031C26.664 40.5031 27.3006 40.2394 27.7699 39.7701L41.7694 25.7706C41.7695 25.7705 41.7695 25.7705 41.7695 25.7705C42.0023 25.5383 42.187 25.2624 42.313 24.9587C42.439 24.655 42.5039 24.3294 42.5039 24.0006C42.5039 23.6717 42.439 23.3461 42.313 23.0424C42.187 22.7389 42.0025 22.4632 41.7699 22.231L33.9649 21.5006Z"  />
<path d="M6.00033 24.0006C6.00033 24.531 6.21104 25.0397 6.58612 25.4148C6.96119 25.7899 7.4699 26.0006 8.00033 26.0006L35.1723 26.0006L24.5843 36.5846C24.2088 36.9601 23.9978 37.4695 23.9978 38.0006C23.9978 38.5317 24.2088 39.041 24.5843 39.4166C24.9599 39.7921 25.4692 40.0031 26.0003 40.0031C26.5314 40.0031 27.0408 39.7921 27.4163 39.4166L41.4163 25.4166C41.6026 25.2308 41.7504 25.0101 41.8512 24.7671C41.952 24.5241 42.0039 24.2636 42.0039 24.0006C42.0039 23.7375 41.952 23.477 41.8512 23.234C41.7504 22.9911 41.6026 22.7704 41.4163 22.5846L27.4163 8.58457C27.2304 8.39862 27.0096 8.25112 26.7667 8.15048C26.5237 8.04984 26.2633 7.99805 26.0003 7.99805C25.4692 7.99805 24.9599 8.20903 24.5843 8.58457C24.2088 8.96012 23.9978 9.46947 23.9978 10.0006C23.9978 10.5317 24.2088 11.041 24.5843 11.4166L35.1723 22.0006H8.00033C7.4699 22.0006 6.96119 22.2113 6.58612 22.5864C6.21104 22.9614 6.00033 23.4701 6.00033 24.0006Z" />
</symbol>


<!-- icon-star -->
<symbol id="icon-star" width="122" height="113" viewBox="0 0 122 113" fill="none" >
<g filter="url(#filter0_d_3105_171)">
<path d="M59.2121 3.16551C60.4401 -0.454383 65.5599 -0.454377 66.7879 3.16552L78.0194 36.2719C78.5701 37.895 80.0935 38.9868 81.8074 38.9868L117.773 38.9868C121.69 38.9868 123.273 44.0331 120.058 46.2702L91.2623 66.3076C89.7995 67.3255 89.1865 69.1883 89.759 70.876L100.827 103.502C102.067 107.157 97.9229 110.275 94.7548 108.07L65.2847 87.5635C63.9114 86.6079 62.0886 86.6079 60.7153 87.5635L31.2452 108.07C28.0771 110.275 23.9326 107.157 25.1726 103.502L36.241 70.876C36.8135 69.1883 36.2005 67.3255 34.7377 66.3076L5.94189 46.2702C2.72704 44.0331 4.30999 38.9868 8.22657 38.9868L44.1926 38.9868C45.9065 38.9868 47.4299 37.895 47.9806 36.2719L59.2121 3.16551Z" fill="url(#paint0_linear_3105_171)"/>
<path d="M59.6855 3.32615C60.7601 0.158741 65.2399 0.158743 66.3145 3.32615L77.5459 36.4326C78.1654 38.2585 79.8793 39.4868 81.8074 39.4868L117.773 39.4868C121.2 39.4868 122.586 43.9024 119.773 45.8598L90.9767 65.8971C89.331 67.0423 88.6414 69.138 89.2855 71.0366L100.354 103.662C101.439 106.86 97.8125 109.589 95.0404 107.66L65.5703 87.1531C64.0254 86.078 61.9746 86.078 60.4297 87.1531L30.9596 107.66C28.1875 109.589 24.5611 106.86 25.6461 103.662L36.7145 71.0366C37.3586 69.138 36.669 67.0423 35.0233 65.8971L6.22747 45.8598C3.41448 43.9023 4.79956 39.4868 8.22657 39.4868L44.1926 39.4868C46.1207 39.4868 47.8346 38.2585 48.454 36.4326L59.6855 3.32615Z" stroke="#915518"/>
</g>
<defs>
<filter id="filter0_d_3105_171" x="0.21875" y="0.451172" width="121.562" height="112.354" filterUnits="userSpaceOnUse" color-interpolation-filters="sRGB">
<feFlood flood-opacity="0" result="BackgroundImageFix"/>
<feColorMatrix in="SourceAlpha" type="matrix" values="0 0 0 0 0 0 0 0 0 0 0 0 0 0 0 0 0 0 127 0" result="hardAlpha"/>
<feOffset dx="-4" dy="4"/>
<feComposite in2="hardAlpha" operator="out"/>
<feColorMatrix type="matrix" values="0 0 0 0 0.494118 0 0 0 0 0.247059 0 0 0 0 0.12549 0 0 0 1 0"/>
<feBlend mode="normal" in2="BackgroundImageFix" result="effect1_dropShadow_3105_171"/>
<feBlend mode="normal" in="SourceGraphic" in2="effect1_dropShadow_3105_171" result="shape"/>
</filter>
<linearGradient id="paint0_linear_3105_171" x1="63" y1="-8" x2="63" y2="128" gradientUnits="userSpaceOnUse">
<stop stop-color="#F4C256"/>
<stop offset="1" stop-color="#F9E294"/>
</linearGradient>
</defs>
</symbol>


</defs>
</svg>
